<?xml version="1.0" standalone="no"?><!DOCTYPE svg PUBLIC "-//W3C//DTD SVG 1.1//EN" "http://www.w3.org/Graphics/SVG/1.1/DTD/svg11.dtd"><svg class="icon" width="200px" height="200.00px" viewBox="0 0 1024 1024" version="1.1" xmlns="http://www.w3.org/2000/svg"><path fill="#333333" d="M960 320H616.064l-4-128h94.912c6.624 18.592 24.192 32 45.056 32s38.464-13.408 45.056-32H896V128h-285.984l-3.008-96h-158.016l-3.008 96H128v64h98.944c6.592 18.592 24.192 32 45.056 32s38.464-13.408 45.056-32h126.912l-4.032 128H64v64h98.944c6.624 18.592 24.192 32 45.056 32s38.464-13.408 45.056-32h184.864l-19.104 608h218.336l-19.104-608h152.864c6.624 18.592 24.192 32 45.056 32s38.464-13.408 45.056-32H960v-64zM484.864 928l26.144-832h33.984l26.144 832h-86.272z" /></svg>