<?xml version="1.0" standalone="no"?><!DOCTYPE svg PUBLIC "-//W3C//DTD SVG 1.1//EN" "http://www.w3.org/Graphics/SVG/1.1/DTD/svg11.dtd"><svg class="icon" width="200px" height="200.00px" viewBox="0 0 1024 1024" version="1.1" xmlns="http://www.w3.org/2000/svg"><path fill="#333333" d="M608 416h205.312L960 288l-146.688-128H608V32h-192v128H96v256h320v64H210.688L64 608l146.688 128H416v256h192v-256h320v-256H608v-64zM480 96h64v64h-64V96zM160 352V224h629.344l73.344 64-73.344 64H160z m320 64h64v64h-64v-64z m64 512h-64v-192h64v192z m320-384v128H234.656l-73.344-64 73.344-64H864z" /></svg>