<?xml version="1.0" standalone="no"?><!DOCTYPE svg PUBLIC "-//W3C//DTD SVG 1.1//EN" "http://www.w3.org/Graphics/SVG/1.1/DTD/svg11.dtd"><svg class="icon" width="200px" height="200.00px" viewBox="0 0 1024 1024" version="1.1" xmlns="http://www.w3.org/2000/svg"><path fill="#333333" d="M987.008 846.816l-448-704a32.032 32.032 0 0 0-54.016 0l-448 704A32 32 0 0 0 64 896h896a32 32 0 0 0 27.008-49.184zM122.304 832L512 219.616 901.696 832H122.304zM495.808 328.896l-268.8 422.4a19.2 19.2 0 0 0 16.192 29.504h537.6a19.2 19.2 0 0 0 16.192-29.504l-268.8-422.4a19.2 19.2 0 0 0-32.384 0zM544 736h-64v-64h64v64z m0-288v192h-64v-192h64z" /></svg>