<?xml version="1.0" standalone="no"?><!DOCTYPE svg PUBLIC "-//W3C//DTD SVG 1.1//EN" "http://www.w3.org/Graphics/SVG/1.1/DTD/svg11.dtd"><svg class="icon" width="200px" height="200.00px" viewBox="0 0 1024 1024" version="1.1" xmlns="http://www.w3.org/2000/svg"><path fill="#333333" d="M942.688 683.296h-82.784c-108.704 0-168.608 58.816-168.608 165.6 0 40.608-33.024 73.632-73.664 73.632S544 889.472 544 848.864V709.76c169.44-20.512 301.28-164.992 301.28-339.904V264H864a32 32 0 1 0 0-64h-121.568V96a32 32 0 1 0-64 0v104H326.656V96a32 32 0 0 0-64 0v104H160a32 32 0 0 0 0 64v105.856c0 181.28 141.632 329.76 320 341.504v137.536c0 75.872 61.76 137.632 137.664 137.632s137.664-61.76 137.664-137.632c0-71.232 31.296-101.6 104.608-101.6h82.784a32 32 0 1 0-0.032-64zM224 369.856V264h557.28v105.856c0 153.632-124.992 278.656-278.656 278.656S224 523.488 224 369.856z" /></svg>