<?xml version="1.0" standalone="no"?><!DOCTYPE svg PUBLIC "-//W3C//DTD SVG 1.1//EN" "http://www.w3.org/Graphics/SVG/1.1/DTD/svg11.dtd"><svg class="icon" width="200px" height="200.00px" viewBox="0 0 1024 1024" version="1.1" xmlns="http://www.w3.org/2000/svg"><path fill="#333333" d="M512 268.288c44.864 0 80-20.256 80-46.144S556.864 176 512 176s-80 20.256-80 46.144 35.136 46.144 80 46.144zM960 390.048c0-21.92-8.416-53.472-45.088-85.056C923.168 289.44 928 273.088 928 256c0-109.44-178.848-192-416-192S96 146.56 96 256c0 17.12 4.832 33.472 13.152 49.088C72.32 336.8 64 368.544 64 390.048c0 26.816 11.904 50.72 32 71.968V816a32 32 0 0 0 32 32 31.168 31.168 0 0 0 17.248-5.76c30.144 19.712 67.936 36.256 110.752 49.664V896a32 32 0 0 0 61.568 12.096 914.88 914.88 0 0 0 162.432 19.072V928a32 32 0 1 0 64 0v-0.384a917.024 917.024 0 0 0 162.592-19.04A32 32 0 0 0 768 896v-3.424c38.528-12.032 72.8-26.784 101.248-44.032A31.52 31.52 0 0 0 896 864a32 32 0 0 0 32-32V462.048c20.096-21.248 32-45.152 32-72zM512 512c-179.616 0-309.12-42.4-360-84.608a31.264 31.264 0 0 0-5.344-4.704c-12.032-11.264-18.656-22.432-18.656-32.64 0-13.824 11.552-26.88 22.656-36.416C221.024 410.912 353.28 448 512 448c158.784 0 291.104-37.12 361.408-94.432 10.912 9.44 22.592 22.72 22.592 36.48 0 10.208-6.624 21.344-18.656 32.64a31.52 31.52 0 0 0-5.376 4.736C821.088 469.6 691.584 512 512 512z m0-384c201.472 0 352 67.584 352 128s-150.528 128-352 128S160 316.416 160 256s150.528-128 352-128zM160 773.76v-266.016c27.808 14.208 60.288 26.272 96.032 36.128L256 544v281.024c-39.744-14.016-72.704-31.36-96-51.264z m160 69.344v-284.48c50.912 9.536 105.44 15.2 160 16.768v287.776c-57.056-1.92-111.392-8.864-160-20.064z m224-267.712a1044.16 1044.16 0 0 0 160-16.768v284.704a850.88 850.88 0 0 1-160 20.192v-288.128z m223.968-31.52c35.744-9.856 68.224-21.888 96.032-36.128v265.984c-23.04 19.744-56.032 37.088-96 51.168V544l-0.032-0.128z" /></svg>