<?xml version="1.0" standalone="no"?><!DOCTYPE svg PUBLIC "-//W3C//DTD SVG 1.1//EN" "http://www.w3.org/Graphics/SVG/1.1/DTD/svg11.dtd"><svg class="icon" width="200px" height="200.00px" viewBox="0 0 1024 1024" version="1.1" xmlns="http://www.w3.org/2000/svg"><path fill="#333333" d="M896 960H128c-35.296 0-64-28.704-64-64V128c0-35.296 28.704-64 64-64h768c35.296 0 64 28.704 64 64v768c0 35.296-28.704 64-64 64zM128 128v768h768.064L896 128H128zM544 480h208a32 32 0 0 1 0 64H544v208a32 32 0 0 1-64 0V544H272a32 32 0 0 1 0-64H480V272a32 32 0 0 1 64 0V480z" /></svg>