<?xml version="1.0" standalone="no"?><!DOCTYPE svg PUBLIC "-//W3C//DTD SVG 1.1//EN" "http://www.w3.org/Graphics/SVG/1.1/DTD/svg11.dtd"><svg class="icon" width="200px" height="200.00px" viewBox="0 0 1024 1024" version="1.1" xmlns="http://www.w3.org/2000/svg"><path fill="#333333" d="M462.208 444.448L437.344 320h-49.696l-24.992 124.448L337.76 320H288l49.792 224h49.76l24.896-141.024 24.896 141.024h49.76l42.08-224h-49.664zM669.664 483.008c-5.952 7.2-14.752 10.784-26.4 10.784-12 0-21.312-4.448-27.968-13.376-6.624-8.896-9.952-25.376-9.952-49.376 0-19.392 2.784-33.632 8.32-42.656 7.328-12.224 17.92-18.304 31.712-18.304 6.08 0 11.616 1.376 16.544 4.128 4.928 2.752 9.088 6.688 12.512 11.808 2.048 3.04 4.032 7.872 5.92 14.464l53.76-13.152c-6.912-22.848-17.44-39.776-31.648-50.784-14.208-11.04-33.696-16.544-58.528-16.544-31.712 0-56.256 9.632-73.568 28.864-17.344 19.232-26.016 46.784-26.016 82.624 0 26.88 4.928 48.928 14.784 66.144 9.856 17.216 21.568 29.28 35.136 36.096 13.568 6.848 31.072 10.272 52.48 10.272 17.664 0 32.192-2.816 43.616-8.416a75.2 75.2 0 0 0 28.704-24.96c7.712-11.008 13.344-24.736 16.928-41.184l-53.344-17.728c-2.688 13.696-7.008 24.128-12.992 31.296zM544 843.584h-64V928h-160v64h384v-64h-160zM512 32C299.936 32 128 203.936 128 416s171.936 384 384 384 384-171.936 384-384S724.064 32 512 32z m0 704c-176.736 0-320-143.264-320-320S335.264 96 512 96s320 143.264 320 320-143.264 320-320 320z" /></svg>