<?xml version="1.0" standalone="no"?><!DOCTYPE svg PUBLIC "-//W3C//DTD SVG 1.1//EN" "http://www.w3.org/Graphics/SVG/1.1/DTD/svg11.dtd"><svg class="icon" width="200px" height="200.00px" viewBox="0 0 1024 1024" version="1.1" xmlns="http://www.w3.org/2000/svg"><path fill="#333333" d="M142.88 205.44c-12.96 0-24.128 4.672-33.44 13.984-9.344 9.344-14.016 20.48-14.016 33.44s4.672 24.128 14.016 33.472c9.312 9.344 20.48 13.984 33.44 13.984 12.96 0 24.128-4.672 33.44-14.016 9.344-9.344 14.016-20.48 14.016-33.44s-4.672-24.096-14.016-33.44a45.504 45.504 0 0 0-33.44-13.984zM142.88 366.752c-10.432 0-19.36 3.712-26.816 11.136a36.576 36.576 0 0 0-11.136 26.816v455.52c0 10.432 3.712 19.36 11.136 26.816 7.424 7.424 16.352 11.136 26.816 11.136s19.36-3.712 26.816-11.136c7.424-7.424 11.136-16.352 11.136-26.816V404.704c0-10.432-3.712-19.36-11.136-26.816a36.544 36.544 0 0 0-26.816-11.136zM547.168 139.008c-151.84 0-227.744 75.936-227.744 227.744v28.48H281.44c-10.432 0-19.36 3.712-26.816 11.136-7.424 7.424-11.136 16.384-11.136 26.816s3.712 19.36 11.136 26.816c7.424 7.424 16.384 11.136 26.816 11.136h37.952v389.088c0 10.432 3.712 19.36 11.168 26.816 7.424 7.424 16.352 11.136 26.816 11.136 10.432 0 19.36-3.712 26.816-11.136 7.424-7.424 11.136-16.352 11.136-26.816V471.136h114.368c10.432 0 19.36-3.712 26.816-11.136 7.424-7.424 11.136-16.384 11.136-26.816s-3.712-19.36-11.136-26.816a36.544 36.544 0 0 0-26.816-11.136h-114.368v-28.48c0-101.216 50.624-151.84 151.84-151.84 10.432 0 19.36-3.712 26.816-11.168 7.424-7.424 11.136-16.352 11.136-26.816s-3.712-19.36-11.136-26.816a36.736 36.736 0 0 0-26.816-11.104zM921.952 585.344a279.968 279.968 0 0 0-24.032-66.208c-6.4-12.448-13.376-24.704-20.928-36.768s-15.456-23.936-23.776-35.648c-4.512-8.672-10.56-14.528-18.112-17.536-7.552-3.008-14.912-3.68-22.08-1.984s-13.28 5.76-18.4 12.16c-5.088 6.4-7.456 14.528-7.072 24.32 0.384 6.4 2.176 11.968 5.376 16.672l9.888 14.432c7.552 11.328 15.008 22.816 22.336 34.528 7.36 11.68 13.472 24.128 18.4 37.344 7.168 19.232 12.256 40.448 15.264 63.648 3.008 23.2 3.968 46.752 2.816 70.72-1.12 23.968-4.512 47.232-10.176 69.856s-13.952 42.816-24.896 60.544c-2.656 4.16-5.088 7.712-7.36 10.752a74.88 74.88 0 0 1-7.072 8.192l-15.552 15.552-7.904 8.48a56.64 56.64 0 0 0-5.664 18.4c-0.768 6.208-0.096 11.968 1.984 17.248 2.08 5.28 5.664 9.632 10.752 13.024s11.584 5.088 19.52 5.088c8.672 0 16.608-2.656 23.776-7.936 7.168-5.28 13.568-10.944 19.232-16.992 13.184-13.952 24.032-30.08 32.544-48.352 8.48-18.304 15.744-36.48 21.792-54.592 6.784-21.12 11.872-43.84 15.264-68.16 3.392-24.32 4.608-48.928 3.68-73.824a388.608 388.608 0 0 0-9.6-72.96zM722.88 861.184a23.04 23.04 0 0 0-1.504-1.728l-5.952-6.784a511.296 511.296 0 0 1-8.192-9.632 67.712 67.712 0 0 1-7.36-10.464 224.48 224.48 0 0 1-24.896-59.68 325.856 325.856 0 0 1-10.176-66.464c-1.12-22.624-0.384-45.184 2.272-67.616a394.432 394.432 0 0 1 15.264-72.416c1.12-3.2 2.72-6.88 4.8-11.04a961.664 961.664 0 0 1 20.064-37.312c3.392-5.28 7.84-11.68 13.28-19.232 5.472-7.552 9.984-15.36 13.568-23.488 3.584-8.096 4.992-16.032 4.256-23.776-0.736-7.712-5.664-14.432-14.72-20.064-9.44-5.664-18.208-6.976-26.304-3.968s-15.552 8.096-22.336 15.264a122.432 122.432 0 0 0-17.824 24.32l-12.736 22.624c-5.664 10.56-11.328 21.024-16.96 31.392a164.448 164.448 0 0 0-13.568 33.088c-13.952 45.632-20.192 92.512-18.656 140.576s11.872 94.368 31.104 138.88c3.008 7.552 7.552 17.344 13.568 29.408s13.216 23.584 21.504 34.496 17.632 19.616 28 26.016c10.368 6.4 21.216 7.552 32.544 3.392 12.064-4.896 18.848-12.544 20.352-22.912a50.144 50.144 0 0 0-5.664-30.848l-13.728-12.032z" /></svg>