<?xml version="1.0" standalone="no"?><!DOCTYPE svg PUBLIC "-//W3C//DTD SVG 1.1//EN" "http://www.w3.org/Graphics/SVG/1.1/DTD/svg11.dtd"><svg class="icon" width="200px" height="200.00px" viewBox="0 0 1024 1024" version="1.1" xmlns="http://www.w3.org/2000/svg"><path fill="#333333" d="M285.28 418.112c12.384-29.856 30.304-56.64 53.248-79.584a244.544 244.544 0 0 1 125.6-67.2l-12.48-62.784a308.032 308.032 0 0 0-158.368 84.736 308.032 308.032 0 0 0-84.736 158.368l62.784 12.48c3.136-15.776 7.808-31.264 13.952-46.016zM338.528 685.472a244.736 244.736 0 0 1-67.2-125.568l-62.784 12.448a308.48 308.48 0 0 0 84.704 158.368 308.352 308.352 0 0 0 158.432 84.768l12.416-62.816a243.232 243.232 0 0 1-125.568-67.2zM730.72 293.28a308.224 308.224 0 0 0-158.368-84.736l-12.448 62.784a244.704 244.704 0 0 1 125.568 67.232 244.672 244.672 0 0 1 67.2 125.536l62.816-12.416a307.968 307.968 0 0 0-17.632-58.048 307.68 307.68 0 0 0-67.136-100.352zM738.72 605.92a242.496 242.496 0 0 1-53.28 79.552 243.104 243.104 0 0 1-125.504 67.2l12.384 62.816a308.288 308.288 0 0 0 58.08-17.632 307.104 307.104 0 0 0 100.32-67.104 307.84 307.84 0 0 0 84.768-158.432l-62.816-12.384a246.144 246.144 0 0 1-13.952 45.984zM682.656 512A170.88 170.88 0 0 0 512 341.344 170.88 170.88 0 0 0 341.344 512 170.88 170.88 0 0 0 512 682.656 170.88 170.88 0 0 0 682.656 512zM512 618.656c-58.816 0-106.656-47.84-106.656-106.656s47.872-106.656 106.656-106.656 106.656 47.872 106.656 106.656-47.84 106.656-106.656 106.656zM959.712 517.536c0.032-1.856 0.288-3.648 0.288-5.536 0-247.04-200.96-448-448-448S64 264.96 64 512c0 1.888 0.256 3.68 0.288 5.536-0.032 0.48-0.288 0.896-0.288 1.408 0 0.832 0.416 1.504 0.48 2.336C69.472 764 268.096 960 512 960s442.528-196 447.52-438.72c0.064-0.832 0.48-1.504 0.48-2.336 0-0.512-0.256-0.928-0.288-1.408zM550.944 894.016v-21.504a32 32 0 1 0-64 0v22.208c-187.104-12.16-338.24-158.496-356.96-343.776h21.504a32 32 0 1 0 0-64H129.28C141.728 295.232 295.232 141.728 486.944 129.28v22.208a32 32 0 0 0 64 0v-21.504c185.28 18.72 331.616 169.856 343.776 356.96h-22.208a32 32 0 1 0 0 64h21.504c-18.272 180.704-162.368 324.8-343.072 343.072z" /></svg>