<?xml version="1.0" standalone="no"?><!DOCTYPE svg PUBLIC "-//W3C//DTD SVG 1.1//EN" "http://www.w3.org/Graphics/SVG/1.1/DTD/svg11.dtd"><svg class="icon" width="200px" height="200.00px" viewBox="0 0 1024 1024" version="1.1" xmlns="http://www.w3.org/2000/svg"><path fill="#333333" d="M896 416c0-212.064-171.936-384-384-384S128 203.936 128 416c0 178.88 122.464 328.736 288 371.424V928h-96v64h384v-64h-96v-140.576c165.536-42.688 288-192.544 288-371.424zM192 416C192 239.264 335.264 96 512 96s320 143.264 320 320-143.264 320-320 320S192 592.736 192 416z m352 512h-64v-129.632c10.592 0.896 21.184 1.632 32 1.632s21.408-0.736 32-1.632V928zM736 352a160 160 0 0 0-160-160h-192v448h64v-128h128a160 160 0 0 0 160-160z m-288-96h128a96 96 0 1 1 0 192h-128V256z" /></svg>