<?xml version="1.0" standalone="no"?><!DOCTYPE svg PUBLIC "-//W3C//DTD SVG 1.1//EN" "http://www.w3.org/Graphics/SVG/1.1/DTD/svg11.dtd"><svg class="icon" width="200px" height="200.00px" viewBox="0 0 1024 1024" version="1.1" xmlns="http://www.w3.org/2000/svg"><path fill="#333333" d="M864 197.888V160a96 96 0 0 0-96-96H256a96 96 0 0 0-96 96v37.888A95.68 95.68 0 0 0 96 288a96 96 0 1 0 192 0 95.68 95.68 0 0 0-64-90.112V160a32 32 0 0 1 32-32h224v544h-13.344a66.656 66.656 0 0 0-66.496 66.88L386.272 928H288a32.032 32.032 0 0 0 0 64h480a32 32 0 0 0 0-64h-130.24l-13.984-191.456c0.064-34.56-29.632-64.544-66.432-64.544H544V128h224a32 32 0 0 1 32 32v37.888A95.68 95.68 0 0 0 736 288a96 96 0 1 0 192 0 95.68 95.68 0 0 0-64-90.112zM192 320a32 32 0 1 1 0-64 32 32 0 0 1 0 64z m367.84 418.88l13.76 189.12h-123.168l13.664-186.784c0.064-4.032 1.248-5.216 2.56-5.216h90.656c1.344 0 2.528 1.184 2.528 2.88zM832 320a32 32 0 1 1 0-64 32 32 0 0 1 0 64z" /></svg>