<?xml version="1.0" standalone="no"?><!DOCTYPE svg PUBLIC "-//W3C//DTD SVG 1.1//EN" "http://www.w3.org/Graphics/SVG/1.1/DTD/svg11.dtd"><svg class="icon" width="200px" height="200.00px" viewBox="0 0 1024 1024" version="1.1" xmlns="http://www.w3.org/2000/svg"><path fill="#333333" d="M512 64H160c-35.296 0-64 28.704-64 64v768c0 35.296 28.704 64 64 64h352c35.296 0 64-28.704 64-64V128c0-35.296-28.704-64-64-64zM160 896V128h352l0.032 768H160zM864 384h-192c-35.296 0-64 28.704-64 64v448c0 35.296 28.704 64 64 64h192c35.296 0 64-28.704 64-64V448c0-35.296-28.704-64-64-64z m-192 512V448h192l0.064 448H672z"  /><path fill="#333333" d="M416 774.4H256a32 32 0 1 0 0 64h160a32 32 0 1 0 0-64z"  /></svg>