<?xml version="1.0" standalone="no"?><!DOCTYPE svg PUBLIC "-//W3C//DTD SVG 1.1//EN" "http://www.w3.org/Graphics/SVG/1.1/DTD/svg11.dtd"><svg class="icon" width="200px" height="200.00px" viewBox="0 0 1024 1024" version="1.1" xmlns="http://www.w3.org/2000/svg"><path fill="#333333" d="M864 64H160c-35.296 0-64 28.704-64 64v768c0 35.296 28.704 64 64 64h704c35.296 0 64-28.704 64-64V128c0-35.296-28.704-64-64-64zM160 896V128h704l0.064 768H160zM192 640h640V160H192v480zM256 224h512v352H256V224zM640 776h-224a32 32 0 1 0 0 64h224a32 32 0 1 0 0-64z" /></svg>