<?xml version="1.0" standalone="no"?><!DOCTYPE svg PUBLIC "-//W3C//DTD SVG 1.1//EN" "http://www.w3.org/Graphics/SVG/1.1/DTD/svg11.dtd"><svg class="icon" width="200px" height="200.00px" viewBox="0 0 1024 1024" version="1.1" xmlns="http://www.w3.org/2000/svg"><path fill="#333333" d="M512 64C264.96 64 64 264.96 64 512s200.96 448 448 448 448-200.96 448-448S759.04 64 512 64z m0 832c-175.648 0-323.808-118.688-369.312-280H192a32 32 0 1 0 0-64H130.112A384.288 384.288 0 0 1 128 512c0-8.096 0.704-16.032 1.216-24H192a32 32 0 0 0 0-64H138.592C178.528 254.624 330.592 128 512 128c181.44 0 333.504 126.624 373.44 296H832a32 32 0 1 0 0 64h62.784c0.512 7.968 1.216 15.904 1.216 24 0 13.504-0.736 26.848-2.112 40H832a32 32 0 1 0 0 64h49.312C835.808 777.312 687.68 896 512 896zM512 352c-88.224 0-160 71.776-160 160s71.776 160 160 160 160-71.776 160-160-71.776-160-160-160z m0 256c-52.928 0-96-43.072-96-96s43.072-96 96-96 96 43.072 96 96-43.072 96-96 96zM512 224m-32 0a32 32 0 1 0 64 0 32 32 0 1 0-64 0Z" /></svg>