<?xml version="1.0" standalone="no"?><!DOCTYPE svg PUBLIC "-//W3C//DTD SVG 1.1//EN" "http://www.w3.org/Graphics/SVG/1.1/DTD/svg11.dtd"><svg class="icon" width="200px" height="200.00px" viewBox="0 0 1024 1024" version="1.1" xmlns="http://www.w3.org/2000/svg"><path fill="#333333" d="M32 128v768h960V128H32z m896 704H96V192h832v640zM240 432m-48 0a48 48 0 1 0 96 0 48 48 0 1 0-96 0ZM720 688m-48 0a48 48 0 1 0 96 0 48 48 0 1 0-96 0ZM528 336m-48 0a48 48 0 1 0 96 0 48 48 0 1 0-96 0ZM749.248 442.496l32-32 32 32 45.248-45.248-32-32 32-32L813.248 288l-32 32-32-32L704 333.248l32 32-32 32zM365.248 730.496l32-32 32 32 45.248-45.248-32-32 32-32L429.248 576l-32 32-32-32L320 621.248l32 32-32 32z" /></svg>