<?xml version="1.0" standalone="no"?><!DOCTYPE svg PUBLIC "-//W3C//DTD SVG 1.1//EN" "http://www.w3.org/Graphics/SVG/1.1/DTD/svg11.dtd"><svg class="icon" width="200px" height="200.00px" viewBox="0 0 1024 1024" version="1.1" xmlns="http://www.w3.org/2000/svg"><path fill="#333333" d="M384 714.656C384 779.456 441.312 832 512 832s128-52.544 128-117.344c0-43.2-42.656-121.408-128-234.656-85.344 113.248-128 191.456-128 234.656zM864 64H160c-35.296 0-64 28.704-64 64v768c0 35.296 28.704 64 64 64h704c35.296 0 64-28.704 64-64V128c0-35.296-28.704-64-64-64zM256 128h512v224H256V128zM160 896V128h32v288h640V128h32l0.064 768H160zM328 192h64v96h-64zM488 192h64v96h-64zM648 192h64v96h-64z" /></svg>