<?xml version="1.0" standalone="no"?><!DOCTYPE svg PUBLIC "-//W3C//DTD SVG 1.1//EN" "http://www.w3.org/Graphics/SVG/1.1/DTD/svg11.dtd"><svg class="icon" width="200px" height="200.00px" viewBox="0 0 1024 1024" version="1.1" xmlns="http://www.w3.org/2000/svg"><path fill="#333333" d="M434.752 480L195.2 240.48A32 32 0 0 1 240.48 195.2L480 434.752V96a32 32 0 0 1 64 0v338.752L783.52 195.2A32 32 0 1 1 828.8 240.48L589.248 480H928a32 32 0 0 1 0 64H589.248l239.52 239.52a32 32 0 1 1-45.248 45.248L544 589.248V928a32 32 0 0 1-64 0V589.248L240.48 828.8A32 32 0 0 1 195.2 783.52L434.752 544H96a32 32 0 0 1 0-64h338.752z" /></svg>