<?xml version="1.0" standalone="no"?><!DOCTYPE svg PUBLIC "-//W3C//DTD SVG 1.1//EN" "http://www.w3.org/Graphics/SVG/1.1/DTD/svg11.dtd"><svg class="icon" width="200px" height="200.00px" viewBox="0 0 1024 1024" version="1.1" xmlns="http://www.w3.org/2000/svg"><path fill="#333333" d="M848 432a80.064 80.064 0 0 0-73.216 48H217.216A80.096 80.096 0 0 0 144 432 80.096 80.096 0 0 0 64 512c0 44.128 35.904 80 80 80A80 80 0 0 0 217.216 544h557.536a80 80 0 0 0 73.216 48c44.128 0 80-35.872 80-80a80.032 80.032 0 0 0-79.968-80z" /></svg>