<?xml version="1.0" standalone="no"?><!DOCTYPE svg PUBLIC "-//W3C//DTD SVG 1.1//EN" "http://www.w3.org/Graphics/SVG/1.1/DTD/svg11.dtd"><svg class="icon" width="200px" height="200.00px" viewBox="0 0 1024 1024" version="1.1" xmlns="http://www.w3.org/2000/svg"><path fill="#333333" d="M333.344 957.216c-8.288 0-16.256-3.232-22.24-8.96l-214.176-206.848A32 32 0 0 1 96 696.256L470.624 304.8l-77.184-71.968a32.064 32.064 0 0 1 18.048-55.2l447.264-53.28a32.032 32.032 0 0 1 35.744 33.44l-23.488 448.448a32 32 0 0 1-53.792 21.728l-81.984-76.48-378.784 395.84a32.16 32.16 0 0 1-22.496 9.888h-0.608z m-169.056-239.712l168.16 162.368L710.816 484.48a31.936 31.936 0 0 1 44.928-1.28l54.912 51.2 17.952-341.952-341.056 40.64 50.432 47.04a31.936 31.936 0 0 1 1.312 45.536L164.288 717.504z" /></svg>