<?xml version="1.0" standalone="no"?><!DOCTYPE svg PUBLIC "-//W3C//DTD SVG 1.1//EN" "http://www.w3.org/Graphics/SVG/1.1/DTD/svg11.dtd"><svg class="icon" width="200px" height="200.00px" viewBox="0 0 1024 1024" version="1.1" xmlns="http://www.w3.org/2000/svg"><path fill="#333333" d="M896 64H128c-35.296 0-64 28.704-64 64v768c0 35.296 28.704 64 64 64h768c35.296 0 64-28.704 64-64V128c0-35.296-28.704-64-64-64zM128 896V128h768l0.064 768H128z"  /><path fill="#333333" d="M512 192C335.552 192 192 335.552 192 512s143.552 320 320 320 320-143.552 320-320S688.448 192 512 192z m0 576c-141.152 0-256-114.848-256-256s114.848-256 256-256 256 114.848 256 256-114.848 256-256 256z"  /><path fill="#333333" d="M512 288c-59.84 0-116.064 23.296-158.4 65.6a31.968 31.968 0 1 0 45.248 45.248A159.072 159.072 0 0 1 512 352c42.752 0 82.944 16.64 113.12 46.848a31.904 31.904 0 0 0 45.248 0.032 32 32 0 0 0 0-45.28A222.304 222.304 0 0 0 512 288z"  /></svg>